<svg x="15px" y="0px" width="52" height="44" viewBox="0 0 100 100" style="margin-top:5px; margin-left:10px" enable-background="new 0 0 52 44" version="1.1" xmlns="http://www.w3.org/2000/svg" xmlns:xlink="http://www.w3.org/1999/xlink" xml:space="preserve">
  <g>
    <path d="M50.6475,41.5797c2.17846,-3.77322 3.32533,-8.0534 3.32533,-12.4103c0,-13.7081 -11.1126,-24.8206 -24.8206,-24.8206c-13.7081,0 -24.8206,11.1126 -24.8206,24.8206c0,4.35692 1.14687,8.6371 3.32534,12.4103l42.9906,0Z" style="fill:#ecc313;"/>
    <path d="M98.1021,41.4434l-95.7954,-0.07514l4.25848,22.34l7.25767,18.4584l70.0001,-5.32858l7.80162,-21.7228l6.47756,-13.6719Z" style="fill:#4b9441;"/>
    <path d="M50.2668,35.3742l40.3881,50.5404l-22.6068,10.4341l-18.6035,-2.32337l-20.1136,1.13722l-20.506,-6.10977l41.4417,-53.6785Z" style="fill:#337fb2;"/>
    <path d="M50.9004,16.5796l24.1346,24.6062l-52.1171,0l20.4623,-18.1534l7.52015,-6.45286Z" style="fill:#4c3a2a;"/>
    <path d="M29.5061,16.8633l27.4038,24.6062l-35.0891,1.92393l-19.7185,-1.92393l16.3882,-17.3432l11.0156,-7.26297Z" style="fill:#7c7373;"/>
    <path d="M70.1926,8.66778l16.5662,16.7965l11.2907,16.1208l-27.8569,0.96197l-25.2797,-0.56585l25.2797,-33.3134Z" style="fill:#726455;"/>
  </g>
</svg>
