<?xml version="1.0" standalone="no"?>
<!DOCTYPE svg PUBLIC "-//W3C//DTD SVG 1.1//EN" "http://www.w3.org/Graphics/SVG/1.1/DTD/svg11.dtd">
<svg width="76" height="24" viewBox="0 0 76 24" style="margin-left:5px" version="1.1" xmlns="http://www.w3.org/2000/svg" xmlns:xlink="http://www.w3.org/1999/xlink" xml:space="preserve" style="fill-rule:evenodd;clip-rule:evenodd;stroke-linejoin:round;stroke-miterlimit:1.41421;">
    <g>
        <path d="M59.4463,6.35288L59.4463,9.48659L61.3172,9.48659L61.3172,23.2999L64.6536,23.2999L64.6536,14.6003C64.7315,11.4198 66.5868,9.471 70.8275,9.471L70.8119,6.33729C67.5222,6.33729 65.7761,7.28832 64.4509,9.22155L64.4509,7.92753C64.4509,7.38186 64.2794,6.9921 63.9988,6.74265C63.7337,6.50879 63.3752,6.35288 62.8607,6.35288L59.4463,6.35288ZM0.560656,6.35288L0.560656,9.48659L2.43153,9.48659L2.43153,23.2999L5.76791,23.2999L5.76791,14.6003C5.84587,11.4198 7.70115,9.471 11.9418,9.471L11.9262,6.33729C8.63658,6.33729 6.89044,7.28832 5.56524,9.22155L5.56524,7.92753C5.56524,7.38186 5.39374,6.9921 5.11311,6.74265C4.84807,6.50879 4.48949,6.35288 3.975,6.35288L0.560656,6.35288ZM13.7503,6.33729L13.7503,9.471L15.6523,9.471L15.6523,19.6517C15.6523,22.115 16.5254,23.2843 18.6613,23.2843L21.2026,23.2843L21.2026,20.1506L19.5344,20.1506C19.0667,20.1506 18.9576,19.9635 18.9576,19.4802L18.9576,7.95871C18.9576,7.44422 18.7705,7.05446 18.5054,6.78942C18.2404,6.52438 17.8662,6.33729 17.3517,6.33729L13.7503,6.33729ZM52.7268,19.8232C51.6978,20.2597 50.6844,20.5091 49.6866,20.5091C46.662,20.5091 44.6197,18.7942 44.0584,15.9723L57.6066,15.9723L57.5755,13.7272C57.4975,9.23714 54.2547,6.05666 49.5151,6.05666C43.7778,6.05666 40.6752,9.61132 40.6752,14.6938C40.6752,19.9947 43.8713,23.5649 49.7178,23.5649C51.1054,23.5649 52.3838,23.3154 53.6154,22.801C54.7847,22.3021 55.8449,21.7876 57.3728,20.9301L55.9228,18.1706C54.5665,19.0124 53.8961,19.3243 52.7268,19.8232ZM39.7554,6.33729L36.9023,6.33729C36.0916,6.33729 35.468,6.66469 35.1718,7.56895L31.3988,18.2485L27.127,7.53777C26.9088,6.77383 26.2695,6.33729 25.4432,6.33729L22.5902,6.33729L22.5902,9.471L24.2895,9.471L29.9645,23.2843L33.0203,23.2843L38.056,9.471L39.7554,9.471L39.7554,6.33729ZM49.5151,9.19037C52.0876,9.19037 54.0052,10.7027 54.2079,13.166L44.1208,13.166C44.3858,10.843 46.5061,9.19037 49.5151,9.19037ZM17.149,0.631136C16.1045,0.631136 15.0599,1.58216 15.0599,2.73587C15.0599,3.81162 16.0733,4.77823 17.149,4.77823C18.3027,4.77823 19.2226,3.82721 19.2226,2.73587C19.2226,1.58216 18.2872,0.631136 17.149,0.631136Z" style="fill:rgb(78,78,78);stroke-width:1px;stroke:rgb(78,78,78);"/>
    </g>
</svg>
